PathFileType	4	(X/Y/Z)	C:\Users\Basilio\Documents\Thesis Gigler\squatting_fais\c3dfiles\041\SLS_pre_front4\markers_experimental.trc
DataRate	CameraRate	NumFrames	NumMarkers	Units	OrigDataRate	OrigDataStartFrame	OrigNumFrames
200.000000	200.000000	4	63	mm	200.000000	690	1381
Frame#	Time	FHD			LBHD			RBHD			C7			T10			CLAV			LSHO			LUUPA			LMUPA			LDUPA			LLEP			LMEP			LRAD			LUL			LRFIN			RSHO			RUPA1			RMUPA			RDUPA			RLEP			RMEP			RRAD			RUL			RUFIN			LASI			RASI			USACR			RSACR			LTHI1			LTHI2			LTHI3			LTHI4			LLFC			LMFC			LTIB1			LTIB2			LTIB3			LTIB4			LLMAL			LMMAL			LHEE			LMT1			LMT2			LMT5			RTHI			RTHI2			RTHI3			RTHI4			RLFC			RMFC			RTIB1			RTIB2			RTIB3			RTIB4			RLMAL			RMMAL			RHEE			RMT1			RMT2			RMT5			LSACR			*61			*62			
		X1	Y1	Z1	X2	Y2	Z2	X3	Y3	Z3	X4	Y4	Z4	X5	Y5	Z5	X6	Y6	Z6	X7	Y7	Z7	X8	Y8	Z8	X9	Y9	Z9	X10	Y10	Z10	X11	Y11	Z11	X12	Y12	Z12	X13	Y13	Z13	X14	Y14	Z14	X15	Y15	Z15	X16	Y16	Z16	X17	Y17	Z17	X18	Y18	Z18	X19	Y19	Z19	X20	Y20	Z20	X21	Y21	Z21	X22	Y22	Z22	X23	Y23	Z23	X24	Y24	Z24	X25	Y25	Z25	X26	Y26	Z26	X27	Y27	Z27	X28	Y28	Z28	X29	Y29	Z29	X30	Y30	Z30	X31	Y31	Z31	X32	Y32	Z32	X33	Y33	Z33	X34	Y34	Z34	X35	Y35	Z35	X36	Y36	Z36	X37	Y37	Z37	X38	Y38	Z38	X39	Y39	Z39	X40	Y40	Z40	X41	Y41	Z41	X42	Y42	Z42	X43	Y43	Z43	X44	Y44	Z44	X45	Y45	Z45	X46	Y46	Z46	X47	Y47	Z47	X48	Y48	Z48	X49	Y49	Z49	X50	Y50	Z50	X51	Y51	Z51	X52	Y52	Z52	X53	Y53	Z53	X54	Y54	Z54	X55	Y55	Z55	X56	Y56	Z56	X57	Y57	Z57	X58	Y58	Z58	X59	Y59	Z59	X60	Y60	Z60	X61	Y61	Z61	X62	Y62	Z62	X63	Y63	Z63	

691	3.45	-189.6448059082032	1554.471435546875	-1156.409057617188	-362.6355590820313	1475.431884765625	-1228.252319335938	-345.7436828613282	1492.318969726563	-1076.913696289063	-406.0044555664064	1365.308349609375	-1144.035034179688	-531.7384033203126	1097.399780273438	-1056.169799804688	-259.3230590820313	1278.414672851563	-1140.744262695313	-344.8361816406251	1353.67041015625	-1274.5087890625	-269.2373962402344	1336.577392578125	-1421.53955078125	-224.7006378173829	1354.860107421875	-1414.618408203125	-220.153305053711	1332.646606445313	-1471.533203125	-180.2602233886719	1328.145385742188	-1496.225219726563	-127.1021423339844	1271.84765625	-1458.475341796875	70.07769012451173	1362.880981445313	-1609.119140625	24.162504196167	1352.645629882813	-1666.251831054688	116.5135345458985	1405.192260742188	-1651.121948242188	-308.3602600097657	1395.094482421875	-1037.812255859375	-183.0726776123047	1422.176391601563	-903.8476562500002	-160.7704620361328	1443.064575195313	-944.2650146484377	-117.572509765625	1447.726684570313	-902.5980224609377	-73.81436157226564	1454.143432617188	-898.153259277344	-44.67266845703126	1373.86181640625	-909.644226074219	195.3329772949219	1477.113037109375	-902.4876098632815	175.2552947998047	1504.084594726563	-836.4382934570315	274.0784301757813	1503.992065429688	-894.2734985351565	-408.0979919433595	889.1405029296877	-1148.485717773438	-412.2065429687501	886.5759277343752	-924.0700683593752	-580.3250122070314	973.812683105469	-1037.574829101563	-597.7689208984376	947.0463867187502	-1010.621215820313	-424.3668212890626	701.6958007812501	-1218.787109375	-345.3348693847657	668.4337158203126	-1218.338500976563	-311.4742431640626	700.8381958007814	-1210.194213867188	-330.5176391601563	609.1343994140626	-1208.56982421875	-210.6000213623047	487.1898803710939	-1184.591796875	-199.2357177734376	485.5334472656251	-1069.347900390625	-230.8239746093751	310.1875000000001	-1101.404418945313	-292.7932434082032	276.8926696777344	-1158.63134765625	-258.8906555175782	265.4367980957032	-1131.725708007813	-285.9165039062501	200.3304595947266	-1086.8203125	-377.5082702636719	125.5027160644532	-1116.280517578125	-335.9369506835938	141.3227691650391	-1035.999755859375	-447.4639282226564	115.9538726806641	-1066.162841796875	-240.2875671386719	67.32151031494142	-1043.794067382813	-234.6347351074219	58.40695571899415	-1088.710571289063	-285.0991516113282	39.88670349121094	-1138.7880859375	-381.2087402343751	647.7574462890626	-868.6875000000002	-315.4808349609376	642.4699707031251	-867.7995605468752	-295.3254394531251	669.1176757812501	-870.5058593750002	-272.5950012207032	572.7196655273439	-892.6519165039065	-174.0797424316407	496.1241455078126	-903.6904296875002	-143.5807647705078	514.3569335937501	-1018.995849609375	-30.96666145324708	403.4945068359376	-918.882507324219	-36.7744483947754	290.4054565429688	-919.3381347656252	-1.325355172157288	321.2808532714844	-915.2969970703127	49.37162017822267	306.4742431640626	-942.2972412109377	96.50419616699222	180.866439819336	-943.8994140625002	106.2436676025391	227.5797119140626	-1018.053405761719	92.38366699218751	118.5425872802735	-1005.147155761719	235.6497650146485	278.8507385253907	-983.4299316406252	229.6717681884766	277.6374511718751	-930.8940429687502	217.4357604980469	223.6803283691407	-892.8811645507815	-598.1840820312501	949.273376464844	-1065.679321289063	-4216.985351562501	853.1821289062502	-3944.666503906251	nan	nan	nan	
692	3.455	-189.4795684814453	1553.7578125	-1156.147705078125	-362.4003295898438	1474.676635742188	-1228.141967773438	-345.2613525390626	1491.79638671875	-1076.793579101563	-405.7604980468751	1364.790405273438	-1143.91943359375	-531.8706054687501	1096.924072265625	-1056.063598632813	-259.0829467773438	1277.609497070313	-1140.55712890625	-344.5347290039063	1353.089233398438	-1274.347900390625	-269.3132629394532	1335.783081054688	-1421.134399414063	-224.4847106933594	1354.26220703125	-1414.352905273438	-220.5485534667969	1332.108154296875	-1471.756103515625	-180.0542602539063	1327.634399414063	-1496.171264648438	-126.9686660766602	1270.949584960938	-1458.365600585938	70.32663726806642	1362.435180664063	-1608.6201171875	24.65736389160157	1352.416381835938	-1665.815795898438	116.8788604736328	1405.080078125	-1650.407958984375	-308.0542297363282	1394.525634765625	-1037.81982421875	-182.7437591552735	1421.310546875	-903.733093261719	-160.6484069824219	1442.396362304688	-944.3166503906252	-117.0402145385742	1446.896362304688	-902.764343261719	-73.43682098388673	1453.22607421875	-898.3078613281252	-44.09220886230469	1372.947509765625	-909.9814453125002	195.6472930908204	1475.986572265625	-903.0254516601565	175.8024291992188	1503.059936523438	-836.9753417968752	274.6722412109376	1502.83837890625	-894.9267578125002	-408.5635070800782	888.641296386719	-1148.356567382813	-412.5285949707032	885.8538208007815	-923.877380371094	-580.5263061523439	973.3054809570315	-1037.50341796875	-597.9912719726564	946.5659179687502	-1010.564453125	-424.4534301757814	701.2861938476564	-1218.748779296875	-345.3462829589844	668.1701049804689	-1218.20263671875	-311.5865783691407	700.6281738281251	-1210.012084960938	-330.4261474609376	608.9313964843751	-1208.4208984375	-210.2617187500001	487.0882873535157	-1184.3759765625	-199.2861785888672	485.4151916503907	-1069.126342773438	-230.738998413086	310.1335449218751	-1101.2197265625	-292.5664062500001	276.7988586425782	-1158.594848632813	-258.8317565917969	265.4210510253907	-1131.650268554688	-285.8569030761719	200.1143798828126	-1086.728271484375	-377.8750915527344	125.7349166870117	-1116.212036132813	-335.8871459960938	141.2996826171875	-1035.961181640625	-447.5617675781251	116.0842514038086	-1066.106079101563	-240.2913665771485	67.31063079833986	-1043.833129882813	-234.699691772461	57.72719573974611	-1089.015014648438	-285.1236267089844	39.86369705200196	-1138.768676757813	-381.1939086914063	647.1300048828126	-868.684509277344	-315.7712402343751	642.1022949218751	-867.5917968750002	-295.5072021484376	668.6538696289064	-870.500915527344	-272.7448120117188	572.4426879882814	-892.6497192382815	-174.2503051757813	495.6616516113282	-903.7532348632815	-143.4978332519532	514.0797729492189	-1019.112182617188	-31.43782043457032	403.140838623047	-918.9742431640627	-36.87675476074219	289.8523864746094	-919.537292480469	-1.458075046539307	320.8047180175782	-915.2736816406252	49.2105178833008	306.1286010742188	-942.3876953125002	96.41925048828128	180.3777770996094	-943.952087402344	106.1730194091797	227.2130584716797	-1018.110412597656	92.22362518310548	118.1040573120117	-1005.286376953125	235.4118652343751	278.3737792968751	-983.466979980469	229.3672943115235	277.3677368164063	-930.8115844726565	217.2135467529297	223.1404571533204	-892.7803344726565	-598.3849487304689	948.7244873046877	-1065.581909179688	-4217.164062500001	853.134704589844	-3944.765625000001	nan	nan	nan	
693	3.46	-189.1902160644532	1553.12841796875	-1156.036254882813	-362.1456909179688	1473.955932617188	-1228.058227539063	-345.0763244628907	1490.9228515625	-1076.672607421875	-405.5558166503907	1364.133666992188	-1143.804565429688	-531.9271850585939	1096.424926757813	-1056.054931640625	-259.1120605468751	1276.825439453125	-1140.444213867188	-344.2923278808594	1352.42529296875	-1274.19140625	-268.6032104492188	1335.109008789063	-1421.1484375	-224.1300048828126	1353.620971679688	-1414.1220703125	-220.2136993408204	1331.716918945313	-1471.490356445313	-179.7896423339844	1327.08642578125	-1495.957641601563	-126.6591415405274	1270.40771484375	-1458.261596679688	70.49816131591798	1362.205444335938	-1608.094604492188	25.21950340270997	1352.1162109375	-1665.38232421875	117.3574523925782	1405.048583984375	-1649.751953125	-307.7761230468751	1393.842163085938	-1037.739013671875	-182.3883819580078	1420.502685546875	-903.8088378906252	-159.9557342529297	1441.619018554688	-944.4227294921877	-116.7329177856446	1446.13427734375	-902.7709960937502	-72.69017791748048	1452.211547851563	-898.4834594726565	-43.80361557006837	1371.740478515625	-910.0435180664065	195.9887695312501	1475.090576171875	-903.6572875976565	176.133056640625	1501.920532226563	-837.3989257812502	275.1561889648438	1501.75537109375	-895.5734863281252	-408.860809326172	887.922302246094	-1148.209838867188	-412.5884399414064	885.4267578125002	-923.8472900390627	-580.7214355468751	972.794128417969	-1037.372314453125	-602.2816162109376	946.9903564453127	-1011.507995605469	-424.4760131835939	700.9169311523439	-1218.6845703125	-345.3763427734376	667.8881835937501	-1218.06494140625	-311.6727600097657	700.4520263671876	-1209.82275390625	-330.3339538574219	608.6815185546876	-1208.255249023438	-209.9905700683594	487.035858154297	-1184.167846679688	-199.3279418945313	485.3990783691407	-1068.838623046875	-230.6199340820313	310.0181884765626	-1101.007202148438	-292.2976989746094	276.7988281250001	-1158.418579101563	-258.7449951171876	265.4648437500001	-1131.4599609375	-285.7701721191407	200.0275421142579	-1086.624145507813	-377.8561401367188	125.7367248535157	-1116.202758789063	-335.9096069335938	141.2728118896485	-1035.8662109375	-447.552459716797	116.1004104614258	-1066.121704101563	-240.2943267822266	67.22901153564455	-1043.76611328125	-234.6170806884766	58.20375823974611	-1088.7978515625	-285.0698242187501	39.82648468017579	-1138.74072265625	-381.4483337402344	646.6196289062501	-868.628601074219	-315.9752197265626	641.3983764648439	-867.5347290039065	-295.6764831542969	668.1375122070314	-870.5679931640627	-273.0767517089844	571.9332885742189	-892.6268310546877	-174.4450836181641	495.1715698242189	-903.6899414062502	-143.4300994873047	513.7830810546876	-1019.191589355469	-31.45262908935548	402.7156066894532	-919.1071777343752	-37.02157211303712	289.4785766601563	-919.703308105469	-1.652726888656617	320.2763977050782	-915.263610839844	49.16011810302736	305.9726562500001	-942.3127441406252	96.28971099853518	179.8068237304688	-944.0314941406252	106.1024246215821	226.6902618408204	-1018.215148925781	92.17358398437501	117.6393203735352	-1005.317810058594	235.4374542236329	277.9087219238282	-983.4427490234377	229.3316345214844	276.8582153320313	-930.710876464844	216.8936309814454	222.5828399658204	-892.6980590820315	-598.5460815429689	948.1759033203127	-1065.514892578125	-4216.803710937501	853.0773925781252	-3944.722900390626	nan	nan	nan	
694	3.465	-188.9465026855469	1552.338989257813	-1155.905395507813	-361.6486511230469	1473.157470703125	-1227.899047851563	-344.8269958496094	1490.026489257813	-1076.63671875	-405.3054809570314	1363.525268554688	-1143.60791015625	-532.0498657226564	1095.994873046875	-1056.00048828125	-258.9657897949219	1276.108154296875	-1140.244384765625	-344.0999755859376	1351.76171875	-1274.013793945313	-268.2027893066407	1334.400268554688	-1420.916748046875	-223.9046020507813	1353.006469726563	-1413.956420898438	-220.0974884033204	1331.1494140625	-1471.312866210938	-179.6907653808594	1326.776611328125	-1495.876953125	-126.3596267700196	1269.929443359375	-1458.117797851563	70.74700164794923	1361.880859375	-1607.663330078125	25.81743431091309	1351.807861328125	-1665.017456054688	117.6502380371094	1404.954345703125	-1649.149780273438	-307.4963073730469	1393.119506835938	-1037.692504882813	-182.1911315917969	1419.781982421875	-903.8985595703127	-159.1608123779297	1440.6953125	-944.4995117187502	-116.2337341308594	1445.296508789063	-902.9080200195315	-72.18413543701173	1451.483276367188	-898.724792480469	-43.3784408569336	1371.031005859375	-910.4616699218752	196.1990356445313	1474.439819335938	-904.1294555664065	176.9777069091797	1500.93994140625	-838.0791625976565	275.5184631347657	1500.858032226563	-896.5067138671877	-409.0641174316407	887.2066040039065	-1148.060302734375	-412.7952880859376	884.843200683594	-923.7449340820315	-580.9176635742189	972.3637695312502	-1037.31005859375	-598.3976440429689	945.5346679687502	-1010.467712402344	-424.5999450683595	700.5440673828126	-1218.630249023438	-345.4419555664063	667.6914672851564	-1217.954956054688	-311.7147521972657	700.3048706054689	-1209.684326171875	-330.3002929687501	608.5065917968751	-1208.102661132813	-210.2430725097657	487.0425415039064	-1184.1728515625	-199.264633178711	485.3230285644532	-1068.678100585938	-230.5018615722657	309.8973693847657	-1100.830444335938	-292.2315673828126	276.6978454589844	-1158.269165039063	-258.6409606933594	265.3904724121094	-1131.284545898438	-285.6970520019532	199.9567871093751	-1086.4931640625	-377.8745117187501	125.7492141723633	-1116.15185546875	-335.9211425781251	141.2557067871094	-1035.8427734375	-447.5589904785157	116.0634918212891	-1066.0556640625	-240.2968902587891	67.16384124755861	-1043.765991210938	-234.6362304687501	58.20724487304689	-1088.790161132813	-285.1215515136719	39.88405227661134	-1138.765747070313	-381.6491394042969	646.0856933593751	-868.6345214843752	-316.1779479980469	640.8803710937501	-867.4546508789065	-295.8738708496094	667.6638793945314	-870.5130004882815	-273.1275024414063	571.4758911132814	-892.5352783203127	-174.6452941894532	494.9289550781251	-903.5801391601565	-144.1687622070313	512.4766235351564	-1019.004699707031	-31.6796054840088	402.2061462402345	-919.1025390625002	-37.3070297241211	288.9929199218751	-919.7404785156252	-1.954351902008057	319.7670898437501	-915.259948730469	48.98068237304689	305.4537353515626	-942.3658447265627	96.15006256103518	179.3221588134766	-944.0305175781252	105.8517150878907	226.2065734863282	-1018.245239257813	91.93324279785158	117.2688446044922	-1005.495849609375	235.1604156494141	277.2100830078126	-983.1866455078127	229.8399658203126	275.6893310546876	-930.715270996094	216.6290130615235	222.0906524658204	-892.5926513671877	-598.8215942382814	947.780944824219	-1065.443115234375	-4216.944335937501	853.1506958007815	-3944.767822265626	nan	nan	nan	
